/* XPM */
static char * close_xpm[] = {
"16 16 4 1",
" 	c #FF0000",
".	c #790000",
"+	c #000000",
"@	c #F90000",
"  .++++++++++.  ",
"  @.++++++++.@  ",
".@  .++++++.  @.",
"+.  @.++++.@  .+",
"++.@  .++.  @.++",
"+++.  @..@  .+++",
"++++.@    @.++++",
"+++++.    .+++++",
"+++++.    .+++++",
"++++.@    @.++++",
"+++.  @..@  .+++",
"++.@  .++.  @.++",
"+.  @.++++.@  .+",
".@  .++++++.  @.",
"  @.++++++++.@  ",
"  .++++++++++.  "};
